<?xml version="1.0" encoding="UTF-8" standalone="no"?>
<svg
   xmlns:dc="http://purl.org/dc/elements/1.1/"
   xmlns:cc="http://creativecommons.org/ns#"
   xmlns:rdf="http://www.w3.org/1999/02/22-rdf-syntax-ns#"
   xmlns:svg="http://www.w3.org/2000/svg"
   xmlns="http://www.w3.org/2000/svg"
   xmlns:sodipodi="http://sodipodi.sourceforge.net/DTD/sodipodi-0.dtd"
   xmlns:inkscape="http://www.inkscape.org/namespaces/inkscape"
   sodipodi:docname="logo.svg"
   inkscape:version="0.92.3 (2405546, 2018-03-11)"
   version="1.1"
   id="svg2"
   height="90"
   width="160"
   inkscape:export-filename="F:\projects\PB\TPFMM\source\images\logo.png"
   inkscape:export-xdpi="96"
   inkscape:export-ydpi="96">
  <sodipodi:namedview
     inkscape:current-layer="svg2"
     inkscape:window-maximized="1"
     inkscape:window-y="-8"
     inkscape:window-x="1912"
     inkscape:cy="47.883909"
     inkscape:cx="23.30821"
     inkscape:zoom="5.3400704"
     showgrid="false"
     id="namedview13"
     inkscape:window-height="1178"
     inkscape:window-width="1920"
     inkscape:pageshadow="2"
     inkscape:pageopacity="0"
     guidetolerance="10"
     gridtolerance="10"
     objecttolerance="10"
     borderopacity="1"
     bordercolor="#666666"
     pagecolor="#ffffff" />
  <defs
     id="defs15" />
  <title
     id="title4">High Resolution Gear</title>
  <metadata
     id="metadata4083">image/svg+xml<rdf:RDF>
  <cc:Work
     rdf:about="">
    <dc:format>image/svg+xml</dc:format>
    <dc:type
       rdf:resource="http://purl.org/dc/dcmitype/StillImage" />
    <dc:title>High Resolution Gear</dc:title>
  </cc:Work>
</rdf:RDF>
</metadata>
  <g
     id="g7"
     transform="translate(0,-910)">
    <title
       id="title9">Layer 1</title>
    <g
       id="layer1"
       externalResourcesRequired="false" />
  </g>
  <g
     id="g4294"
     transform="matrix(0.35715813,-0.10462288,0.10462288,0.35715813,47.957337,30.925813)"
     inkscape:label="Gear10"
     style="fill:#829baf;fill-opacity:0.94117647;stroke-width:9.11686611">
    <path
       style="fill:#829baf;fill-opacity:0.94117647;stroke:none;stroke-width:9.11686611;stroke-miterlimit:4;stroke-dasharray:none"
       d="m 319.5332,40.832031 -24.26172,2.414063 -15.83984,45.550781 0.36524,12.863285 7.76367,27.92968 -43.08594,18.89649 -15.28711,-24.63086 -9.21484,-8.98242 -44.23828,-19.201175 -18.21094,16.212895 13.95898,46.16211 7.85742,10.19335 22.69727,18.03125 -23.74805,40.61133 -26.8457,-10.93945 -12.73438,-1.85156 -47.076168,10.46875 -5.203124,23.82226 38.427732,29.14063 12.3457,3.62695 28.9629,1.24609 4.65625,46.81641 -28.14844,6.92773 -11.39063,5.98829 -31.931638,36.14062 9.792968,22.32813 48.2168,0.98828 12.12109,-4.32227 24.16211,-16.01367 31.28516,35.13672 -18.69922,22.15039 -5.69531,11.53906 -4.5918,48.00781 21.04687,12.3086 39.58985,-27.54102 7.26367,-10.62304 10.13672,-27.15821 45.96289,10.03711 -2.10938,28.91211 2.17579,12.68359 24.5039,41.53711 24.26172,-2.41406 15.83984,-45.55078 -0.36523,-12.86328 -7.76367,-27.92969 43.08398,-18.89453 15.28711,24.62891 9.2168,8.98242 44.23828,19.20117 18.20898,-16.21289 -13.95898,-46.16211 -7.85547,-10.19141 -22.69922,-18.0332 23.75,-40.61133 26.84571,10.93946 12.73437,1.85156 47.07617,-10.46875 5.20313,-23.82031 -38.42774,-29.14063 -12.34765,-3.6289 -28.96094,-1.2461 -4.65625,-46.81445 28.14844,-6.92969 11.39062,-5.98828 31.93164,-36.13867 -9.79297,-22.33008 -48.21679,-0.98828 -12.1211,4.32226 -24.16211,16.01563 -31.28515,-35.13867 18.69922,-22.14844 5.69531,-11.54102 4.5918,-48.007809 -21.04688,-12.30664 -39.58984,27.539062 -7.26563,10.623047 -10.13476,27.1582 -45.96289,-10.03711 2.10937,-28.912106 -2.17578,-12.683593 z m 15.71485,124.896489 a 123.85433,123.85433 0 0 1 2.24804,0.0742 123.85433,123.85433 0 0 1 20.95118,2.73047 123.85433,123.85433 0 0 1 79.54296,57.01953 L 363.7168,257.7168 a 44.943224,44.943224 0 0 0 -31.69336,-13.12305 44.943224,44.943224 0 0 0 -1.34571,0.0469 l -32.15234,-74.24804 a 123.85433,123.85433 0 0 1 36.72266,-4.66406 z m -67.20899,17.84179 32.16211,74.27149 a 44.943224,44.943224 0 0 0 -13.12109,31.69336 44.943224,44.943224 0 0 0 0.0488,1.3457 l -74.24805,32.15234 a 123.85433,123.85433 0 0 1 -1.85938,-59.92187 123.85433,123.85433 0 0 1 57.01758,-79.54102 z m 183.12696,72.46875 a 123.85433,123.85433 0 0 1 1.85937,59.92188 123.85433,123.85433 0 0 1 -57.01758,79.54101 L 363.8457,321.23047 a 44.943224,44.943224 0 0 0 13.1211,-31.69531 44.943224,44.943224 0 0 0 -0.0488,-1.34375 l 74.24805,-32.15235 z m -119.14258,9.52735 a 23.96972,23.96972 0 0 1 23.9707,23.96875 23.96972,23.96972 0 0 1 -23.9707,23.9707 23.96972,23.96972 0 0 1 -23.96875,-23.9707 23.96972,23.96972 0 0 1 23.96875,-23.96875 z m -31.69336,55.78906 a 44.943224,44.943224 0 0 0 31.69336,13.12305 44.943224,44.943224 0 0 0 1.3457,-0.0469 l 32.15234,74.24805 a 123.85433,123.85433 0 0 1 -59.92187,1.85937 123.85433,123.85433 0 0 1 -79.54297,-57.01953 l 74.27344,-32.16406 z"
       transform="matrix(0.29971957,-0.06545286,0.06545286,0.29971957,-118.46484,-65.047839)"
       id="path4296"
       inkscape:connector-curvature="0" />
  </g>
  <path
     style="fill:#314965;fill-opacity:1;stroke:none;stroke-width:0.5;stroke-miterlimit:4;stroke-dasharray:none;stroke-opacity:1"
     d="m 82.660872,19.017587 -2.35896,1.630106 0.931717,4.852016 0.941433,1.801084 1.585567,1.792254 -3.497674,3.704562 -1.880283,-1.480074 -1.85211,-0.836334 -4.897472,-0.65164 -1.491858,2.448538 2.824623,4.053554 1.592463,1.262503 2.177715,0.992355 -1.688591,4.806807 -2.319875,-0.587418 -2.032275,-0.01069 -4.739018,1.396743 -0.367001,2.843865 4.229114,2.554027 1.968427,0.505484 2.392899,0.02104 0.412599,5.078148 -2.358094,0.406909 -1.860998,0.816861 -3.761074,3.20329 0.821217,2.747204 4.902463,0.61334 2.00371,-0.338851 2.194613,-0.954124 2.44242,4.471204 -1.988716,1.331047 -1.367847,1.502884 -2.133024,4.456517 1.867833,2.175483 4.727693,-1.433754 1.692943,-1.124508 1.616617,-1.764298 4.049946,3.091242 -1.275333,2.024829 -0.638328,1.929444 -0.136211,4.938611 2.591233,1.227919 3.736056,-3.232825 1.089165,-1.715794 0.759307,-2.269439 4.957042,1.17659 -0.341744,2.368626 0.201795,2.022162 1.884464,4.567115 2.86642,0.0678 2.0981,-4.473017 0.29711,-2.010335 -0.22939,-2.381917 5.00716,-0.941243 0.65128,2.302615 1.00677,1.765388 3.57908,3.405635 2.64641,-1.103868 0.0973,-4.939696 -0.54623,-1.957252 -1.17847,-2.082989 4.19145,-2.896396 1.53168,1.838721 1.63759,1.203286 4.65494,1.655687 1.96839,-2.085044 -1.92003,-4.552248 -1.29523,-1.565899 -1.92385,-1.423502 2.65121,-4.350805 2.14692,1.056944 1.98565,0.432806 4.92583,-0.380746 0.95013,-2.705284 -3.60539,-3.377527 -1.82035,-0.903755 -2.33641,-0.518164 0.65219,-5.052764 2.3913,0.09205 1.98997,-0.411895 4.34507,-2.351417 -0.23233,-2.858012 -4.66766,-1.619 -2.03041,-0.0854 -2.34504,0.47729 -1.45931,-4.881446 2.22187,-0.888452 1.65048,-1.18593 3.0131,-3.915282 -1.37467,-2.516533 -4.92261,0.419657 -1.88975,0.747949 -1.94817,1.389448 -3.31886,-3.86565 1.6688,-1.715299 1.02528,-1.754589 1.15995,-4.802372 -2.27932,-1.739808 -4.32647,2.385474 -1.42189,1.451853 -1.21471,2.06185 -4.60409,-2.181748 0.82662,-2.24574 0.22319,-2.020034 -0.89374,-4.858781 -2.78973,-0.662361 -2.98211,3.939003 -0.70877,1.904656 -0.27077,2.377628 -5.09362,-0.120402 -0.15811,-2.38779 -0.617707,-1.935996 -2.792885,-4.075463 -2.818064,0.529601 -1.122202,4.811478 0.127555,2.028153 0.71951,2.282368 -4.702024,1.961721 -1.115894,-2.117168 -1.351739,-1.517239 z m 9.3754,12.04528 A 21.993337,21.993337 0 0 1 100.702,28.464853 l -0.29157,12.338724 a 9.7495954,9.7495954 0 0 0 -2.282398,0.883168 9.7495954,9.7495954 0 0 0 -2.301496,1.758546 L 85.17912,36.957796 a 21.993337,21.993337 0 0 1 6.857152,-5.894929 z m 13.453518,-2.474184 a 21.993337,21.993337 0 0 1 15.10553,9.205844 l -10.6548,5.82025 a 9.7495954,9.7495954 0 0 0 -4.73943,-2.809124 z M 82.685978,41.0472 93.428915,47.592795 a 9.7495954,9.7495954 0 0 0 -0.05807,5.073293 l -11.117442,6.07297 A 21.993337,21.993337 0 0 1 82.68598,41.047203 Z m 18.803952,6.793993 a 2.7367285,2.7367285 0 0 1 3.71378,1.08963 2.7367285,2.7367285 0 0 1 -1.08983,3.713876 2.7367285,2.7367285 0 0 1 -3.71368,-1.089931 2.7367285,2.7367285 0 0 1 1.08973,-3.713575 z m -16.925686,15.09283 11.099243,-6.063026 a 9.7495954,9.7495954 0 0 0 4.303276,2.697731 l -0.29697,12.571146 A 21.993337,21.993337 0 0 1 84.564231,62.93401 Z m 27.668736,-15.114221 10.67319,-5.830297 a 21.993337,21.993337 0 0 1 -0.43279,17.691952 l -10.43086,-6.355751 a 9.7495954,9.7495954 0 0 0 0.19045,-5.505917 z m -7.48071,11.975109 a 9.7495954,9.7495954 0 0 0 2.72349,-0.995793 9.7495954,9.7495954 0 0 0 1.98064,-1.440723 l 10.52403,6.412339 a 21.993337,21.993337 0 0 1 -6.85714,5.89493 21.993337,21.993337 0 0 1 -8.66575,2.598017 z"
     id="path4430"
     inkscape:connector-curvature="0" />
</svg>
