<?xml version="1.0" encoding="UTF-8" standalone="no"?>
<!-- Created with Inkscape (http://www.inkscape.org/) -->

<svg
   xmlns:dc="http://purl.org/dc/elements/1.1/"
   xmlns:cc="http://creativecommons.org/ns#"
   xmlns:rdf="http://www.w3.org/1999/02/22-rdf-syntax-ns#"
   xmlns:svg="http://www.w3.org/2000/svg"
   xmlns="http://www.w3.org/2000/svg"
   xmlns:sodipodi="http://sodipodi.sourceforge.net/DTD/sodipodi-0.dtd"
   xmlns:inkscape="http://www.inkscape.org/namespaces/inkscape"
   width="64"
   height="64"
   viewBox="0 0 64.000001 64.000001"
   id="svg4194"
   version="1.1"
   inkscape:version="0.91 r13725"
   sodipodi:docname="mods.svg"
   inkscape:export-filename="mods.png"
   inkscape:export-xdpi="56.25"
   inkscape:export-ydpi="56.25">
  <defs
     id="defs4196" />
  <sodipodi:namedview
     id="base"
     pagecolor="#ffffff"
     bordercolor="#666666"
     borderopacity="1.0"
     inkscape:pageopacity="0.0"
     inkscape:pageshadow="2"
     inkscape:zoom="7.9195959"
     inkscape:cx="13.72189"
     inkscape:cy="25.146075"
     inkscape:document-units="px"
     inkscape:current-layer="layer1"
     showgrid="false"
     units="px"
     inkscape:window-width="1920"
     inkscape:window-height="1178"
     inkscape:window-x="1912"
     inkscape:window-y="-8"
     inkscape:window-maximized="1" />
  <metadata
     id="metadata4199">
    <rdf:RDF>
      <cc:Work
         rdf:about="">
        <dc:format>image/svg+xml</dc:format>
        <dc:type
           rdf:resource="http://purl.org/dc/dcmitype/StillImage" />
        <dc:title />
      </cc:Work>
    </rdf:RDF>
  </metadata>
  <g
     inkscape:label="Layer 1"
     inkscape:groupmode="layer"
     id="layer1"
     transform="translate(0,0)">
    <path
       style="fill:#2f4763;fill-opacity:1;stroke:none;stroke-width:0.99999994;stroke-miterlimit:4;stroke-dasharray:none"
       d="m -2.98e-5,34.35284 0.2588,2.47597 4.06254,1.30962 1.75457,0.0323 2.0145196,-0.46217 1.35944,4.2071 -1.89994,0.81668 -1.4004596,1.06315 -2.52114,3.46051 1.23794,2.15592 4.2410496,-0.46507 1.6159302,-0.68792 1.65347,-1.24631 2.94361,3.28742 -1.40547,1.52318 -0.84936,1.54409 -0.90328,4.19239 2.00316,1.46335 3.68609,-2.15941 1.19789,-1.28948 1.00649,-1.81458 4.01903,1.79928 -0.66778,1.96618 -0.15135,1.75804 0.87054,4.19916 2.42178,0.51773 2.49418,-3.48026 0.57266,-1.66782 0.18543,-2.06937 4.39932,0 0.18543,2.06937 0.57267,1.66782 2.49417,3.48026 2.42178,-0.51773 0.87054,-4.19916 -0.15135,-1.75804 -0.66778,-1.96618 4.01903,-1.79928 1.00649,1.81458 1.19789,1.28948 3.68609,2.15941 2.00316,-1.46335 -0.90328,-4.19239 -0.84936,-1.54409 -1.40547,-1.52318 2.94361,-3.28742 1.65347,1.24631 1.61593,0.68792 4.24105,0.46507 1.23794,-2.15592 -2.52114,-3.46051 -1.40046,-1.06315 -1.89994,-0.81668 1.35944,-4.2071 2.01452,0.46217 1.75457,-0.0323 4.06235,-1.30962 0.25899,-2.47597 -3.70304,-2.13017 -1.70932,-0.39847 -2.06632,0.031 -0.45982,-4.39935 2.02742,-0.40176 1.58974,-0.74697 3.1816,-2.85778 -0.76522,-2.36774 -4.24451,-0.43177 -1.72279,0.33515 -1.87511,0.87341 -2.19957,-3.8311 1.68968,-1.19597 1.14994,-1.33286 1.75053,-3.91183 -1.65675,-1.8499998 -4.05196,1.3413698 -1.43839,1.01088 -1.35983,1.56461 -3.55901,-2.60008 1.05964,-1.7837898 0.51162,-1.68775 0.0168,-4.28958 -2.26196,-1.01262 -3.15907,2.88276 -0.9052,1.51157 -0.60906,1.98554 -4.30324,-0.91988 0.24648,-2.06279 -0.21547,-1.75126 -1.71972,-3.92558 -2.47608,0 -1.71971,3.92558 -0.21547,1.75126 0.24647,2.06279 -4.30324,0.91988 -0.60906,-1.98554 -0.9052,-1.51157 -3.15907,-2.88276 -2.26196,1.01262 0.0168,4.28958 0.51162,1.68775 1.05964,1.7837898 -3.5592,2.60008 -1.35964,-1.56461 -1.43839,-1.01088 -4.0519602,-1.3413698 -1.65675,1.8499998 1.75053,3.91183 1.1499402,1.33286 1.68968,1.19597 -2.1997602,3.8311 -1.87492,-0.87341 -1.7227896,-0.33515 -4.24451,0.43177 -0.76522,2.36774 3.1816,2.85778 1.58974,0.74697 2.0274196,0.40176 -0.45982,4.39935 -2.0663196,-0.031 -1.70932,0.39847 -3.70304,2.13017 z M 13.00885,32.22267 a 18.99106,19.095682 0 0 1 1.61844,-7.68445 l 9.22959,5.35795 a 8.4186933,8.4650718 0 0 0 -0.27555,2.10674 8.4186933,8.4650718 0 0 0 0.37991,2.48566 l -9.32375,5.41274 a 18.99106,19.095682 0 0 1 -1.62864,-7.67864 z m 3.69419,-11.28108 a 18.99106,19.095682 0 0 1 13.22917,-7.67826 l 0,10.54127 a 8.4186933,8.4650718 0 0 0 -4.09066,2.44209 l -9.13851,-5.3051 z m 10e-4,22.56157 9.40732,-5.46134 a 8.4186933,8.4650718 0 0 0 3.82051,2.15592 l 0,10.99898 A 18.99106,19.095682 0 0 1 16.70405,43.50316 Z M 29.63648,32.00291 a 2.3631419,2.3761604 0 0 1 2.36305,-2.37625 2.3631419,2.3761604 0 0 1 2.36324,2.37625 2.3631419,2.3761604 0 0 1 -2.36324,2.37607 2.3631419,2.3761604 0 0 1 -2.36305,-2.37607 z m 4.43091,19.17909 0,-10.98097 a 8.4186933,8.4650718 0 0 0 3.8257,-2.15611 l 9.40347,5.45883 A 18.99106,19.095682 0 0 1 34.06739,51.182 Z m 0,-27.37391 0,-10.55947 a 18.99106,19.095682 0 0 1 13.22782,7.69375 l -9.13427,5.30258 a 8.4186933,8.4650718 0 0 0 -4.09355,-2.43686 z m 5.97809,10.68454 a 8.4186933,8.4650718 0 0 0 0.37279,-2.48972 8.4186933,8.4650718 0 0 0 -0.27189,-2.10887 l 9.21572,-5.35002 a 18.99106,19.095682 0 0 1 1.62864,7.67865 18.99106,19.095682 0 0 1 -1.61843,7.68445 l -9.32683,-5.41449 z"
       id="path4430"
       inkscape:connector-curvature="0" />
  </g>
</svg>
