<?xml version="1.0" encoding="UTF-8" standalone="no"?>
<!-- Created with Inkscape (http://www.inkscape.org/) -->

<svg
   xmlns:dc="http://purl.org/dc/elements/1.1/"
   xmlns:cc="http://creativecommons.org/ns#"
   xmlns:rdf="http://www.w3.org/1999/02/22-rdf-syntax-ns#"
   xmlns:svg="http://www.w3.org/2000/svg"
   xmlns="http://www.w3.org/2000/svg"
   xmlns:sodipodi="http://sodipodi.sourceforge.net/DTD/sodipodi-0.dtd"
   xmlns:inkscape="http://www.inkscape.org/namespaces/inkscape"
   width="64"
   height="64"
   viewBox="0 0 64.000001 64.000001"
   id="svg4194"
   version="1.1"
   inkscape:version="0.91 r13725"
   sodipodi:docname="mods.svg"
   inkscape:export-filename="mods.png"
   inkscape:export-xdpi="56.25"
   inkscape:export-ydpi="56.25">
  <defs
     id="defs4196" />
  <sodipodi:namedview
     id="base"
     pagecolor="#ffffff"
     bordercolor="#666666"
     borderopacity="1.0"
     inkscape:pageopacity="0.0"
     inkscape:pageshadow="2"
     inkscape:zoom="7.9195959"
     inkscape:cx="13.658755"
     inkscape:cy="25.146075"
     inkscape:document-units="px"
     inkscape:current-layer="layer1"
     showgrid="false"
     units="px"
     inkscape:window-width="1769"
     inkscape:window-height="1178"
     inkscape:window-x="143"
     inkscape:window-y="-8"
     inkscape:window-maximized="1" />
  <metadata
     id="metadata4199">
    <rdf:RDF>
      <cc:Work
         rdf:about="">
        <dc:format>image/svg+xml</dc:format>
        <dc:type
           rdf:resource="http://purl.org/dc/dcmitype/StillImage" />
        <dc:title />
      </cc:Work>
    </rdf:RDF>
  </metadata>
  <g
     inkscape:label="Layer 1"
     inkscape:groupmode="layer"
     id="layer1"
     transform="translate(0,0)">
    <path
       style="fill:#2f4763;fill-opacity:1;stroke:none;stroke-width:0.99999994;stroke-miterlimit:4;stroke-dasharray:none"
       d="m 1.9999721,34.20579 0.2426252,2.321225 3.8086349,1.227769 1.6449109,0.03028 1.8886139,-0.433285 1.274476,3.94416 -1.7811952,0.765638 -1.3129322,0.996704 -2.3635709,3.244231 1.1605698,2.021177 3.9759875,-0.436003 1.514936,-0.644926 1.55013,-1.168417 2.759637,3.08196 -1.317629,1.427982 -0.796276,1.447586 -0.846826,3.930369 1.877964,1.371892 3.455713,-2.024449 1.123023,-1.208888 0.943585,-1.701171 3.767844,1.686827 -0.626044,1.843295 -0.141891,1.648164 0.816132,3.936717 2.270421,0.485372 2.338296,-3.262747 0.536869,-1.563583 0.173841,-1.940036 4.124366,0 0.173841,1.940036 0.536879,1.563583 2.338286,3.262747 2.270421,-0.485372 0.816132,-3.936717 -0.14189,-1.648164 -0.626045,-1.843295 3.767844,-1.686827 0.943586,1.701171 1.123023,1.208888 3.455712,2.024449 1.877964,-1.371892 -0.846825,-3.930369 -0.796276,-1.447586 -1.317629,-1.427982 2.759637,-3.08196 1.550129,1.168417 1.514936,0.644926 3.975988,0.436003 1.16057,-2.021177 -2.363571,-3.244231 -1.312933,-0.996704 -1.781195,-0.765638 1.274476,-3.94416 1.888614,0.433285 1.644911,-0.03028 3.808457,-1.227769 0.242803,-2.321225 -3.471603,-1.997036 -1.602489,-0.373566 -1.937177,0.02906 -0.431081,-4.124395 1.900708,-0.37665 1.490382,-0.700285 2.982753,-2.679171 -0.717394,-2.219759 -3.979232,-0.404784 -1.615117,0.314203 -1.757918,0.818823 -2.062098,-3.59166 1.584076,-1.121223 1.07807,-1.249557 1.641123,-3.667344 -1.553204,-1.734377 -3.798716,1.257535 -1.348492,0.947701 -1.274842,1.466824 -3.336575,-2.437578 0.993413,-1.672304 L 45.26426,9.10798 45.28001,5.0864947 43.15942,4.1371625 40.197789,6.8397526 39.349163,8.256851 38.778169,10.118296 34.743878,9.255911 34.974953,7.3220435 34.77295,5.6802357 33.160711,2.000001 l -2.321327,0 -1.61223,3.6802347 -0.202003,1.6418078 0.231065,1.9338675 -4.034291,0.862388 -0.570994,-1.861445 -0.848626,-1.4170984 -2.961631,-2.7025901 -2.120589,0.9493322 0.01575,4.0214853 0.479644,1.582267 0.993413,1.672304 -3.336753,2.437578 -1.274664,-1.466824 -1.348491,-0.947701 -3.798717,-1.257535 -1.5532044,1.734377 1.6411234,3.667344 1.07807,1.249557 1.584077,1.121223 -2.062278,3.59166 -1.7577388,-0.818823 -1.6151168,-0.314203 -3.9792319,0.404784 -0.7173944,2.219759 2.9827528,2.679171 1.4903827,0.700285 1.9007076,0.37665 -0.4310816,4.124395 -1.9371765,-0.02906 -1.602489,0.373566 -3.4716032,1.997036 z M 14.195808,32.208754 a 17.804135,17.902219 0 0 1 1.517289,-7.204178 l 8.652749,5.023082 a 7.8925324,7.9360123 0 0 0 -0.258328,1.975071 7.8925324,7.9360123 0 0 0 0.356166,2.330308 l -8.741024,5.074449 a 17.804135,17.902219 0 0 1 -1.526852,-7.198732 z m 3.463307,-10.576022 a 17.804135,17.902219 0 0 1 12.402358,-7.198376 l 0,9.88245 a 7.8925324,7.9360123 0 0 0 -3.834997,2.289462 l -8.567361,-4.973536 z m 9.37e-4,21.151492 8.819371,-5.120012 a 7.8925324,7.9360123 0 0 0 3.581732,2.021177 l 0,10.311554 A 17.804135,17.902219 0 0 1 17.660062,42.784224 Z M 29.784226,32.002729 a 2.2154476,2.2276525 0 0 1 2.215362,-2.227736 2.2154476,2.2276525 0 0 1 2.215539,2.227736 2.2154476,2.2276525 0 0 1 -2.215539,2.227568 2.2154476,2.2276525 0 0 1 -2.215362,-2.227568 z m 4.153982,17.980414 0,-10.294669 a 7.8925324,7.9360123 0 0 0 3.586597,-2.021355 l 8.815762,5.117658 a 17.804135,17.902219 0 0 1 -12.402359,7.198366 z m 0,-25.663065 0,-9.899512 a 17.804135,17.902219 0 0 1 12.401093,7.212897 l -8.563386,4.971173 a 7.8925324,7.9360123 0 0 0 -3.837707,-2.284558 z m 5.604465,10.016766 a 7.8925324,7.9360123 0 0 0 0.349491,-2.334115 7.8925324,7.9360123 0 0 0 -0.254897,-1.977067 l 8.639745,-5.015649 a 17.804135,17.902219 0 0 1 1.526852,7.198741 17.804135,17.902219 0 0 1 -1.51728,7.204179 l -8.743911,-5.076089 z"
       id="path4430"
       inkscape:connector-curvature="0" />
  </g>
</svg>
