<?xml version="1.0" encoding="UTF-8" standalone="no"?>
<svg
   xmlns:dc="http://purl.org/dc/elements/1.1/"
   xmlns:cc="http://creativecommons.org/ns#"
   xmlns:rdf="http://www.w3.org/1999/02/22-rdf-syntax-ns#"
   xmlns:svg="http://www.w3.org/2000/svg"
   xmlns="http://www.w3.org/2000/svg"
   xmlns:sodipodi="http://sodipodi.sourceforge.net/DTD/sodipodi-0.dtd"
   xmlns:inkscape="http://www.inkscape.org/namespaces/inkscape"
   sodipodi:docname="high-resolution-gear.svg"
   inkscape:version="0.91 r13725"
   version="1.1"
   id="svg2"
   height="1000"
   width="1000"
   inkscape:export-filename="C:\Users\alexa\Desktop\gear.png"
   inkscape:export-xdpi="11.52"
   inkscape:export-ydpi="11.52">
  <sodipodi:namedview
     inkscape:current-layer="svg2"
     inkscape:window-maximized="0"
     inkscape:window-y="242"
     inkscape:window-x="746"
     inkscape:cy="427.14969"
     inkscape:cx="441.84047"
     inkscape:zoom="0.6675088"
     showgrid="false"
     id="namedview13"
     inkscape:window-height="1018"
     inkscape:window-width="1487"
     inkscape:pageshadow="2"
     inkscape:pageopacity="0"
     guidetolerance="10"
     gridtolerance="10"
     objecttolerance="10"
     borderopacity="1"
     bordercolor="#666666"
     pagecolor="#ffffff" />
  <defs
     id="defs15" />
  <title
     id="title4">High Resolution Gear</title>
  <metadata
     id="metadata4083">image/svg+xml<rdf:RDF>
  <cc:Work
     rdf:about="">
    <dc:format>image/svg+xml</dc:format>
    <dc:type
       rdf:resource="http://purl.org/dc/dcmitype/StillImage" />
  </cc:Work>
</rdf:RDF>
</metadata>
  <g
     id="g7">
    <title
       id="title9">Layer 1</title>
    <g
       id="layer1"
       externalResourcesRequired="false" />
  </g>
  <g
     id="g4294"
     transform="matrix(3.3148693,0.72390224,-0.72390224,3.3148693,286.90915,260.7607)"
     inkscape:label="Gear10"
     style="fill:#831555;fill-opacity:1">
    <path
       style="fill:#831555;fill-opacity:1;stroke:none;stroke-width:1;stroke-miterlimit:4;stroke-dasharray:none"
       d="m 319.5332,40.832031 -24.26172,2.414063 -15.83984,45.550781 0.36524,12.863285 7.76367,27.92968 -43.08594,18.89649 -15.28711,-24.63086 -9.21484,-8.98242 -44.23828,-19.201175 -18.21094,16.212895 13.95898,46.16211 7.85742,10.19335 22.69727,18.03125 -23.74805,40.61133 -26.8457,-10.93945 -12.73438,-1.85156 -47.076168,10.46875 -5.203124,23.82226 38.427732,29.14063 12.3457,3.62695 28.9629,1.24609 4.65625,46.81641 -28.14844,6.92773 -11.39063,5.98829 -31.931638,36.14062 9.792968,22.32813 48.2168,0.98828 12.12109,-4.32227 24.16211,-16.01367 31.28516,35.13672 -18.69922,22.15039 -5.69531,11.53906 -4.5918,48.00781 21.04687,12.3086 39.58985,-27.54102 7.26367,-10.62304 10.13672,-27.15821 45.96289,10.03711 -2.10938,28.91211 2.17579,12.68359 24.5039,41.53711 24.26172,-2.41406 15.83984,-45.55078 -0.36523,-12.86328 -7.76367,-27.92969 43.08398,-18.89453 15.28711,24.62891 9.2168,8.98242 44.23828,19.20117 18.20898,-16.21289 -13.95898,-46.16211 -7.85547,-10.19141 -22.69922,-18.0332 23.75,-40.61133 26.84571,10.93946 12.73437,1.85156 47.07617,-10.46875 5.20313,-23.82031 -38.42774,-29.14063 -12.34765,-3.6289 -28.96094,-1.2461 -4.65625,-46.81445 28.14844,-6.92969 11.39062,-5.98828 31.93164,-36.13867 -9.79297,-22.33008 -48.21679,-0.98828 -12.1211,4.32226 -24.16211,16.01563 -31.28515,-35.13867 18.69922,-22.14844 5.69531,-11.54102 4.5918,-48.007809 -21.04688,-12.30664 -39.58984,27.539062 -7.26563,10.623047 -10.13476,27.1582 -45.96289,-10.03711 2.10937,-28.912106 -2.17578,-12.683593 -24.50391,-41.53711 z m 15.71485,124.896489 a 123.85433,123.85433 0 0 1 2.24804,0.0742 123.85433,123.85433 0 0 1 20.95118,2.73047 123.85433,123.85433 0 0 1 79.54296,57.01953 L 363.7168,257.7168 a 44.943224,44.943224 0 0 0 -31.69336,-13.12305 44.943224,44.943224 0 0 0 -1.34571,0.0469 l -32.15234,-74.24804 a 123.85433,123.85433 0 0 1 36.72266,-4.66406 z m -67.20899,17.84179 32.16211,74.27149 a 44.943224,44.943224 0 0 0 -13.12109,31.69336 44.943224,44.943224 0 0 0 0.0488,1.3457 l -74.24805,32.15234 a 123.85433,123.85433 0 0 1 -1.85938,-59.92187 123.85433,123.85433 0 0 1 57.01758,-79.54102 z m 183.12696,72.46875 a 123.85433,123.85433 0 0 1 1.85937,59.92188 123.85433,123.85433 0 0 1 -57.01758,79.54101 L 363.8457,321.23047 a 44.943224,44.943224 0 0 0 13.1211,-31.69531 44.943224,44.943224 0 0 0 -0.0488,-1.34375 l 74.24805,-32.15235 z m -119.14258,9.52735 a 23.96972,23.96972 0 0 1 23.9707,23.96875 23.96972,23.96972 0 0 1 -23.9707,23.9707 23.96972,23.96972 0 0 1 -23.96875,-23.9707 23.96972,23.96972 0 0 1 23.96875,-23.96875 z m -31.69336,55.78906 a 44.943224,44.943224 0 0 0 31.69336,13.12305 44.943224,44.943224 0 0 0 1.3457,-0.0469 l 32.15234,74.24805 a 123.85433,123.85433 0 0 1 -59.92187,1.85937 123.85433,123.85433 0 0 1 -79.54297,-57.01953 l 74.27344,-32.16406 z"
       transform="matrix(0.29971957,-0.06545286,0.06545286,0.29971957,-118.46484,-65.047839)"
       id="path4296"
       inkscape:connector-curvature="0" />
  </g>
  <path
     style="fill:#413e39;fill-opacity:1;stroke:none;stroke-width:0.99999994;stroke-miterlimit:4;stroke-dasharray:none"
     d="m 616.61643,317.15783 -25.99842,2.7324 -13.75144,42.89292 -0.33951,18.52499 4.85285,21.26959 -44.17577,14.35321 -8.57533,-20.05993 -11.16338,-14.78625 -36.33639,-26.6185 -22.63782,13.07037 4.88334,44.77754 7.22337,17.06122 13.08663,17.45764 -34.51886,31.07897 -15.99387,-14.8391 -16.21343,-8.96771 -44.02126,-9.53695 -15.36566,21.14964 22.67442,38.91834 13.53999,12.64749 19.05359,10.62666 -18.89297,42.43346 -20.64546,-7.05056 -18.45993,-1.59796 -44.09241,9.19133 -5.43634,25.56946 36.54377,26.33388 17.51255,6.04623 21.72905,1.95781 0,46.4487 -21.72905,1.9578 -17.51255,6.04625 -36.54377,26.33387 5.43634,25.56945 44.09241,9.19134 18.45993,-1.59797 20.64546,-7.05056 18.89297,42.43346 -19.05359,10.62666 -13.53999,12.6475 -22.67442,38.91835 15.36566,21.14963 44.02126,-9.53695 16.21343,-8.96771 15.99387,-14.83911 34.51886,31.07897 -13.08663,17.45766 -7.22337,17.0612 -4.88334,44.77755 22.63782,13.07036 36.33639,-26.61849 11.16338,-14.78625 8.57533,-20.05994 44.17577,14.35322 -4.85285,21.26959 0.33951,18.52499 13.75144,42.89088 25.99842,2.73444 22.36743,-39.09725 4.18398,-18.04723 -0.32529,-21.81648 46.19456,-4.85488 4.21855,21.40581 7.84344,16.78471 30.00756,33.5918 24.86195,-8.07928 4.53367,-44.81413 -3.51918,-18.18954 -9.17101,-19.79767 40.22761,-23.22334 12.55804,17.83986 13.99541,12.14127 41.07538,18.4823 19.42563,-17.49221 -14.08485,-42.7811 -10.61446,-15.18676 -16.42894,-14.35728 27.3016,-37.57654 18.73032,11.18778 17.72195,5.40177 45.04184,0.17688 10.63276,-23.88204 -30.26983,-33.35393 -15.87187,-9.55729 -20.84876,-6.43048 9.65894,-45.43421 21.65993,2.60228 18.38877,-2.27496 41.21974,-18.15702 0,-26.14277 -41.21974,-18.157 -18.38877,-2.27497 -21.65993,2.60228 -9.65894,-45.43421 20.84876,-6.43048 15.87187,-9.55729 30.26983,-33.35393 -10.63276,-23.88204 -45.04184,0.17688 -17.72195,5.40176 -18.73032,11.18778 -27.3016,-37.57857 16.42894,-14.35525 10.61446,-15.18675 14.08485,-42.7811 -19.42563,-17.49222 -41.07538,18.4823 -13.99541,12.14127 -12.55804,17.83986 -40.22761,-23.22536 9.17101,-19.79563 3.51918,-18.18955 -4.53367,-44.81414 -24.86195,-8.07927 -30.00756,33.5918 -7.84344,16.78472 -4.21855,21.40579 -46.19456,-4.85488 0.32529,-21.81647 -4.18398,-18.04723 -22.36743,-39.09725 z m 22.36743,137.34965 a 200.51031,200.51031 0 0 1 80.68902,17.08763 l -56.2601,97.44732 a 88.885758,88.885758 0 0 0 -22.12144,-2.90926 88.885758,88.885758 0 0 0 -26.10007,4.01117 l -56.83546,-98.44147 a 200.51031,200.51031 0 0 1 80.62805,-17.19539 z m 118.45463,39.00373 a 200.51031,200.51031 0 0 1 80.62398,139.67544 l -110.68643,0 A 88.885758,88.885758 0 0 0 701.73341,589.9969 l 55.70508,-96.48569 z m -236.90318,0.0142 57.34575,99.32381 a 88.885758,88.885758 0 0 0 -22.63781,40.3374 l -115.49253,0 a 200.51031,200.51031 0 0 1 80.78459,-139.66118 z m 120.75603,136.54253 a 24.950387,24.950387 0 0 1 24.95142,24.94939 24.950387,24.950387 0 0 1 -24.95142,24.9514 24.950387,24.950387 0 0 1 -24.94937,-24.9514 24.950387,24.950387 0 0 1 24.94937,-24.94939 z m -201.3861,46.78211 115.30344,0 a 88.885758,88.885758 0 0 0 22.63985,40.3923 l -57.31932,99.28318 A 200.51031,200.51031 0 0 1 439.90524,676.85008 Z m 287.43421,0 110.87753,0 A 200.51031,200.51031 0 0 1 757.43037,816.5113 l -55.67866,-96.44097 a 88.885758,88.885758 0 0 0 25.58774,-43.22025 z m -112.19087,63.11754 a 88.885758,88.885758 0 0 0 26.14276,3.93595 88.885758,88.885758 0 0 0 22.1438,-2.87064 l 56.17675,97.30093 a 200.51031,200.51031 0 0 1 -80.62803,17.19539 200.51031,200.51031 0 0 1 -80.68903,-17.08763 l 56.85375,-98.474 z"
     id="path4430"
     inkscape:connector-curvature="0" />
</svg>
