<?xml version="1.0" encoding="UTF-8" standalone="no"?>
<!-- Created with Inkscape (http://www.inkscape.org/) -->

<svg
   xmlns:dc="http://purl.org/dc/elements/1.1/"
   xmlns:cc="http://creativecommons.org/ns#"
   xmlns:rdf="http://www.w3.org/1999/02/22-rdf-syntax-ns#"
   xmlns:svg="http://www.w3.org/2000/svg"
   xmlns="http://www.w3.org/2000/svg"
   xmlns:sodipodi="http://sodipodi.sourceforge.net/DTD/sodipodi-0.dtd"
   xmlns:inkscape="http://www.inkscape.org/namespaces/inkscape"
   width="1000"
   height="1000"
   viewBox="0 0 264.58333 264.58333"
   version="1.1"
   id="svg862"
   sodipodi:docname="logo.svg"
   inkscape:version="0.92.3 (2405546, 2018-03-11)"
   inkscape:export-filename="D:\projects\PB\TPFMM\source\images\logo\logo_new.png"
   inkscape:export-xdpi="96"
   inkscape:export-ydpi="96">
  <sodipodi:namedview
     id="base"
     pagecolor="#ffffff"
     bordercolor="#666666"
     borderopacity="1.0"
     inkscape:pageopacity="0.0"
     inkscape:pageshadow="2"
     inkscape:zoom="0.7"
     inkscape:cx="521.3168"
     inkscape:cy="461.52473"
     inkscape:document-units="mm"
     inkscape:current-layer="svg862"
     showgrid="false"
     inkscape:window-width="2560"
     inkscape:window-height="1386"
     inkscape:window-x="2552"
     inkscape:window-y="-8"
     inkscape:window-maximized="1"
     units="px" />
  <defs
     id="defs856" />
  <metadata
     id="metadata859">
    <rdf:RDF>
      <cc:Work
         rdf:about="">
        <dc:format>image/svg+xml</dc:format>
        <dc:type
           rdf:resource="http://purl.org/dc/dcmitype/StillImage" />
        <dc:title />
      </cc:Work>
    </rdf:RDF>
  </metadata>
  <path
     style="fill:#829baf;fill-opacity:1;stroke:none;stroke-width:0;stroke-miterlimit:4;stroke-dasharray:none;stroke-opacity:1"
     d="m 50.568598,40.566211 -4.961453,1.612305 -0.49506,7.997446 0.361733,1.17357 2.704746,5.22914 -6.905522,5.01726 -4.136697,-4.18837 -1.004075,-0.70642 -7.758697,-2.00091 -3.066481,4.22093 4.300513,6.76083 0.981853,0.7369 5.261692,2.64067 -2.637565,8.11837 -5.808429,-0.95705 -1.227834,0.0186 -7.452775,2.94194 v 5.21725 l 7.452775,2.94194 1.227834,0.0191 5.808429,-0.95653 2.637565,8.11785 -5.261692,2.64067 -0.981853,0.73691 -4.300513,6.760818 3.066481,4.22093 7.758697,-2.00039 1.004075,-0.70642 4.136697,-4.18837 6.905522,5.01726 -2.704746,5.22914 -0.361733,1.17357 0.49506,7.99745 4.961453,1.6123 5.100465,-6.17947 0.397391,-1.16168 0.885217,-5.82084 h 8.535397 l 0.885217,5.82084 0.397393,1.16168 5.100463,6.17947 4.961453,-1.6123 0.494544,-7.99745 -0.361217,-1.17357 -2.704746,-5.22914 6.905006,-5.01726 4.137215,4.18837 1.004073,0.70642 7.7587,2.00039 3.065962,-4.22093 -4.299995,-6.760818 -0.981853,-0.73691 -5.261694,-2.64067 2.637565,-8.11785 5.808429,0.95653 1.227834,-0.0191 7.452263,-2.94194 v -5.21725 l -7.452263,-2.94194 -1.227834,-0.0186 -5.808429,0.95705 -2.637565,-8.11837 5.261694,-2.64067 0.981853,-0.7369 4.299995,-6.76083 -3.065962,-4.22093 -7.7587,2.00091 -1.004073,0.70642 -4.137215,4.18837 -6.905006,-5.01726 2.704746,-5.22914 0.361217,-1.17357 -0.494544,-7.997446 -4.961453,-1.612305 -5.100463,6.179468 -0.397393,1.161685 -0.885217,5.820318 h -8.535397 l -0.885217,-5.820318 -0.397391,-1.161685 z m 7.595401,22.597591 v 7.81347 a 11.239132,11.239132 0 0 0 -7.749912,7.75818 h -7.806759 a 18.883046,18.883046 0 0 1 15.556671,-15.57165 z m 6.110224,0.015 a 18.883046,18.883046 0 0 1 15.572174,15.55667 h -7.813476 a 11.239132,11.239132 0 0 0 -7.758698,-7.74991 z m -3.055112,13.4674 a 5.1446009,5.1446009 0 0 1 5.144389,5.14438 5.1446009,5.1446009 0 0 1 -5.144389,5.14439 5.1446009,5.1446009 0 0 1 -5.144388,-5.14439 5.1446009,5.1446009 0 0 1 5.144388,-5.14438 z m -18.626769,8.1995 h 7.813476 a 11.239132,11.239132 0 0 0 7.758181,7.74991 v 7.806758 A 18.883046,18.883046 0 0 1 42.592342,84.845682 Z m 29.43231,0 h 7.806759 A 18.883046,18.883046 0 0 1 64.274223,100.41787 v -7.813988 a 11.239132,11.239132 0 0 0 7.750429,-7.75818 z"
     id="path5425"
     inkscape:connector-curvature="0" />
  <path
     style="fill:#314965;fill-opacity:1;stroke:none;stroke-width:0;stroke-miterlimit:4;stroke-dasharray:none;stroke-opacity:1"
     d="m 159.5129,58.680372 -2.22469,7.67282 -0.0428,1.14994 0.51195,6.35938 -10.25399,1.62405 -1.47836,-6.20631 -0.39604,-1.08041 -4.48689,-6.60989 -6.99514,2.27299 0.2553,7.98479 0.31454,1.10679 2.45208,5.88988 -9.25031,4.71325 -3.32376,-5.44573 -0.71059,-0.90509 -6.30973,-4.89988 -5.9505,4.32338 2.7103,7.51513 0.64123,0.95542 4.15198,4.84389 -7.34102,7.341 -4.84387,-4.15198 -0.95544,-0.64139 -7.515134,-2.71012 -4.32321,5.9505 4.89973,6.309728 0.90524,0.71058 5.445584,3.32377 -4.71326,9.25031 -5.889734,-2.45208 -1.10693,-0.31454 -7.9848,-0.25529 -2.27283,6.99513 6.60989,4.48689 1.08025,0.39604 6.20629,1.47816 -1.62404,10.25419 -6.35937,-0.51196 -1.14977,0.0428 -7.67301,2.2247 v 7.35504 l 7.67301,2.22469 1.14977,0.043 6.35937,-0.51196 1.62404,10.25402 -6.20629,1.47817 -1.08025,0.39603 -6.60989,4.48689 2.27283,6.99513 7.9848,-0.25512 1.10693,-0.31471 5.889734,-2.45208 4.71326,9.25048 -5.445584,3.32361 -0.90524,0.71057 -4.89973,6.30973 4.32321,5.95049 7.515134,-2.7101 0.95544,-0.64123 4.84387,-4.15215 7.34102,7.34117 -4.15198,4.84372 -0.64123,0.95559 -2.7103,7.51497 5.9505,4.32337 6.30973,-4.89988 0.71059,-0.90508 3.32376,-5.44575 9.25031,4.71325 -2.45208,5.88989 -0.31454,1.10678 -0.2553,7.98481 6.99514,2.27298 4.48689,-6.60988 0.39604,-1.08042 1.47836,-6.20631 10.25399,1.62422 -0.51195,6.35921 0.0428,1.14993 2.22469,7.67284 h 7.3552 l 2.22472,-7.67284 0.0428,-1.14993 -0.51198,-6.35921 10.25403,-1.62422 1.47815,6.20631 0.39621,1.08042 4.48673,6.60988 6.9953,-2.27298 -0.2553,-7.98481 -0.31453,-1.10678 -2.45209,-5.88989 9.25031,-4.71325 3.32376,5.44575 0.71042,0.90508 6.3099,4.89988 5.9505,-4.32337 -2.71027,-7.51497 -0.64123,-0.95559 -4.15217,-4.84372 7.34118,-7.34117 4.8439,4.15215 0.95541,0.64123 7.51513,2.7101 4.32321,-5.95049 -4.89986,-6.30973 -0.90508,-0.71057 -5.44577,-3.32361 4.71342,-9.25048 5.88973,2.45208 1.10696,0.31471 7.9848,0.25512 2.2728,-6.99513 -6.60989,-4.48689 -1.08039,-0.39603 -6.20615,-1.47817 1.62404,-10.25402 6.3592,0.51196 1.14994,-0.043 7.67285,-2.22469 v -7.35504 l -7.67285,-2.2247 -1.14994,-0.0428 -6.3592,0.51196 -1.62404,-10.25419 6.20615,-1.47816 1.08039,-0.39604 6.60989,-4.48689 -2.2728,-6.99513 -7.9848,0.25529 -1.10696,0.31454 -5.88973,2.45208 -4.71342,-9.25031 5.44577,-3.32377 0.90508,-0.71058 4.89986,-6.309728 -4.32321,-5.9505 -7.51513,2.71012 -0.95541,0.64139 -4.8439,4.15198 -7.34118,-7.341 4.15217,-4.84389 0.64123,-0.95542 2.71027,-7.51513 -5.9505,-4.32338 -6.3099,4.89988 -0.71042,0.90509 -3.32376,5.44573 -9.25031,-4.71325 2.45209,-5.88988 0.31453,-1.10679 0.2553,-7.98479 -6.9953,-2.27299 -4.48673,6.60989 -0.39621,1.08041 -1.47815,6.20631 -10.25403,-1.62405 0.51198,-6.35938 -0.0428,-1.14994 -2.22472,-7.67282 z m 9.34517,30.57078 a 52.425172,52.425172 0 0 1 27.14478,11.270048 l -20.4164,20.41642 a 23.910134,23.910134 0 0 0 -6.72838,-2.78819 z m -11.33511,0.0416 v 28.853598 a 23.910134,23.910134 0 0 0 -6.73387,2.78596 l -20.43301,-20.43303 a 52.425172,52.425172 0 0 1 27.16688,-11.206528 z m 46.51708,19.221638 a 52.425172,52.425172 0 0 1 11.20655,27.1667 h -28.85378 a 23.910134,23.910134 0 0 0 -2.78581,-6.73367 z m -81.67698,0.0221 20.41624,20.41625 a 23.910134,23.910134 0 0 0 -2.78819,6.72836 h -28.89828 a 52.425172,52.425172 0 0 1 11.27023,-27.14461 z m 40.82737,24.86016 a 7.9520671,7.9520671 0 0 1 7.9521,7.9521 7.9520671,7.9520671 0 0 1 -7.9521,7.95209 7.9520671,7.9520671 0 0 1 -7.9521,-7.95209 7.9520671,7.9520671 0 0 1 7.9521,-7.9521 z m -52.05598,13.61974 h 28.85358 a 23.910134,23.910134 0 0 0 2.78597,6.73367 l -20.43304,20.43303 a 52.425172,52.425172 0 0 1 -11.20651,-27.1667 z m 75.25528,0 h 28.89844 a 52.425172,52.425172 0 0 1 -11.2702,27.14462 L 183.6017,153.74476 a 23.910134,23.910134 0 0 0 2.78803,-6.72837 z m -35.59531,14.74364 a 23.910134,23.910134 0 0 0 6.72854,2.78802 v 28.89828 a 52.425172,52.425172 0 0 1 -27.14481,-11.27005 z m 24.79733,0.005 20.433,20.43302 a 52.425172,52.425172 0 0 1 -27.16668,11.20636 v -28.85359 a 23.910134,23.910134 0 0 0 6.73368,-2.78579 z"
     id="path1718"
     inkscape:connector-curvature="0"
     inkscape:export-xdpi="96"
     inkscape:export-ydpi="96" />
  <g
     transform="translate(0,-32.416684)"
     id="layer1"
     inkscape:groupmode="layer"
     inkscape:label="Layer 1" />
  <g
     transform="matrix(6.7396075,0,0,6.7396075,500,-235.41668)"
     inkscape:label="Gear20"
     id="g1575"
     style="stroke-width:0.14837658;stroke-miterlimit:4;stroke-dasharray:none" />
  <g
     id="g1708"
     inkscape:label="Gear10"
     transform="matrix(6.3570727,0,0,6.3576648,500,-235.41668)"
     style="stroke-width:0.15729776;stroke-miterlimit:4;stroke-dasharray:none" />
</svg>
