<?xml version="1.0" encoding="UTF-8" standalone="no"?>
<!-- Created with Inkscape (http://www.inkscape.org/) -->

<svg
   xmlns:dc="http://purl.org/dc/elements/1.1/"
   xmlns:cc="http://creativecommons.org/ns#"
   xmlns:rdf="http://www.w3.org/1999/02/22-rdf-syntax-ns#"
   xmlns:svg="http://www.w3.org/2000/svg"
   xmlns="http://www.w3.org/2000/svg"
   xmlns:sodipodi="http://sodipodi.sourceforge.net/DTD/sodipodi-0.dtd"
   xmlns:inkscape="http://www.inkscape.org/namespaces/inkscape"
   width="210mm"
   height="297mm"
   viewBox="0 0 744.09448819 1052.3622047"
   id="svg2"
   version="1.1"
   inkscape:version="0.91 r13725"
   inkscape:export-filename="C:\Users\naehring\Desktop\TPFMM-git\source\images\backup.png"
   inkscape:export-xdpi="300"
   inkscape:export-ydpi="300"
   sodipodi:docname="backup.svg">
  <defs
     id="defs4" />
  <sodipodi:namedview
     id="base"
     pagecolor="#ffffff"
     bordercolor="#666666"
     borderopacity="1.0"
     inkscape:pageopacity="0.0"
     inkscape:pageshadow="2"
     inkscape:zoom="2.8"
     inkscape:cx="190.91581"
     inkscape:cy="734.37593"
     inkscape:document-units="px"
     inkscape:current-layer="g4172"
     showgrid="false"
     inkscape:window-width="1920"
     inkscape:window-height="1148"
     inkscape:window-x="-8"
     inkscape:window-y="-8"
     inkscape:window-maximized="1" />
  <metadata
     id="metadata7">
    <rdf:RDF>
      <cc:Work
         rdf:about="">
        <dc:format>image/svg+xml</dc:format>
        <dc:type
           rdf:resource="http://purl.org/dc/dcmitype/StillImage" />
        <dc:title></dc:title>
      </cc:Work>
    </rdf:RDF>
  </metadata>
  <g
     inkscape:label="Layer 1"
     inkscape:groupmode="layer"
     id="layer1">
    <g
       id="g4172">
      <path
         style="fill:#2f4763;fill-opacity:1;stroke:none;stroke-width:0.2;stroke-linecap:round;stroke-linejoin:miter;stroke-miterlimit:4;stroke-dasharray:none;stroke-dashoffset:0;stroke-opacity:1"
         d="m 209.4082,263.43359 c -2.96785,0 -5.35742,2.38957 -5.35742,5.35743 l 0,101.4121 c 0,2.96786 2.38957,5.35743 5.35742,5.35743 l 101.41211,0 c 2.96786,0 5.35742,-2.38956 5.35742,-5.35743 l 0,-88.45703 -18.3125,-18.3125 -88.45703,0 z"
         id="path4186" />
      <path
         style="fill:#dcdcdc;fill-opacity:1;fill-rule:nonzero;stroke:none;stroke-width:0.2;stroke-linecap:round;stroke-linejoin:miter;stroke-miterlimit:4;stroke-dasharray:none;stroke-dashoffset:0;stroke-opacity:1"
         d="M 233.78711 263.43359 L 233.78711 289.83203 C 233.78711 294.22693 237.3258 297.76367 241.7207 297.76367 L 282.99023 297.76367 C 287.38513 297.76367 290.92383 294.22693 290.92383 289.83203 L 290.92383 263.43359 L 233.78711 263.43359 z M 265.80273 266.73633 L 281.25 266.73633 L 281.25 295.21875 L 265.80273 295.21875 L 265.80273 266.73633 z "
         id="path4182" />
      <path
         style="fill:#f0f0f0;fill-opacity:1;stroke:none;stroke-width:0.2;stroke-linecap:round;stroke-linejoin:miter;stroke-miterlimit:4;stroke-dasharray:none;stroke-dashoffset:0;stroke-opacity:1"
         d="m 225.35742,306.46875 67.67774,0 c 2.96785,0 5.35742,2.38957 5.35742,5.35742 l 0,54.28516 c 0,2.96785 -2.38957,5.35742 -5.35742,5.35742 l -67.67774,0 c -2.96785,0 -5.35742,-2.38957 -5.35742,-5.35742 l 0,-54.28516 c 0,-2.96785 2.38957,-5.35742 5.35742,-5.35742 z"
         id="rect4136" />
    </g>
  </g>
</svg>
