<?xml version="1.0" encoding="UTF-8" standalone="no"?>
<!-- Created with Inkscape (http://www.inkscape.org/) -->

<svg
   xmlns:dc="http://purl.org/dc/elements/1.1/"
   xmlns:cc="http://creativecommons.org/ns#"
   xmlns:rdf="http://www.w3.org/1999/02/22-rdf-syntax-ns#"
   xmlns:svg="http://www.w3.org/2000/svg"
   xmlns="http://www.w3.org/2000/svg"
   xmlns:sodipodi="http://sodipodi.sourceforge.net/DTD/sodipodi-0.dtd"
   xmlns:inkscape="http://www.inkscape.org/namespaces/inkscape"
   width="64"
   height="64"
   viewBox="0 0 64.000001 64.000001"
   id="svg4142"
   version="1.1"
   inkscape:version="0.91 r13725"
   sodipodi:docname="share.svg"
   inkscape:export-filename="O:\TPFMM\source\images\share.png"
   inkscape:export-xdpi="90"
   inkscape:export-ydpi="90">
  <defs
     id="defs4144" />
  <sodipodi:namedview
     id="base"
     pagecolor="#ffffff"
     bordercolor="#666666"
     borderopacity="1.0"
     inkscape:pageopacity="0.0"
     inkscape:pageshadow="2"
     inkscape:zoom="0.24748737"
     inkscape:cx="-826.08252"
     inkscape:cy="-195.7419"
     inkscape:document-units="px"
     inkscape:current-layer="layer1"
     showgrid="false"
     units="px"
     inkscape:window-width="2560"
     inkscape:window-height="1386"
     inkscape:window-x="2552"
     inkscape:window-y="-8"
     inkscape:window-maximized="1" />
  <metadata
     id="metadata4147">
    <rdf:RDF>
      <cc:Work
         rdf:about="">
        <dc:format>image/svg+xml</dc:format>
        <dc:type
           rdf:resource="http://purl.org/dc/dcmitype/StillImage" />
        <dc:title />
      </cc:Work>
    </rdf:RDF>
  </metadata>
  <g
     inkscape:label="Layer 1"
     inkscape:groupmode="layer"
     id="layer1"
     transform="translate(0,0)">
    <path
       inkscape:connector-curvature="0"
       d="m 48.877401,43.58926 c -2.137804,0 -4.050576,0.8438 -5.513283,2.1658 L 23.308139,34.08156 c 0.140645,-0.647 0.25316,-1.2939 0.25316,-1.9689 0,-0.6752 -0.112517,-1.3222 -0.25316,-1.9691 l 19.830947,-11.5611 c 1.518965,1.4065 3.516125,2.2785 5.738315,2.2785 4.669415,0 8.438702,-3.7693 8.438702,-8.4386 0,-4.66956 -3.769287,-8.43882 -8.438702,-8.43882 -4.669414,0 -8.4387,3.76926 -8.4387,8.43882 0,0.675 0.112517,1.3219 0.253161,1.9689 l -19.830947,11.561 c -1.518966,-1.4064 -3.516125,-2.2784 -5.738316,-2.2784 -4.669414,0 -8.4387018,3.7693 -8.4387018,8.4388 0,4.6693 3.7692878,8.4386 8.4387018,8.4386 2.222191,0 4.21935,-0.872 5.738316,-2.2785 l 20.02785,11.7017 c -0.140645,0.5907 -0.225031,1.2095 -0.225031,1.8285 0,4.5286 3.684899,8.2135 8.213667,8.2135 4.52877,0 8.213669,-3.6849 8.213669,-8.2135 0,-4.5288 -3.684899,-8.2137 -8.213669,-8.2137 z"
       id="path4" />
  </g>
</svg>
