<?xml version="1.0" encoding="UTF-8" standalone="no"?>
<!-- Created with Inkscape (http://www.inkscape.org/) -->

<svg
   xmlns:dc="http://purl.org/dc/elements/1.1/"
   xmlns:cc="http://creativecommons.org/ns#"
   xmlns:rdf="http://www.w3.org/1999/02/22-rdf-syntax-ns#"
   xmlns:svg="http://www.w3.org/2000/svg"
   xmlns="http://www.w3.org/2000/svg"
   xmlns:sodipodi="http://sodipodi.sourceforge.net/DTD/sodipodi-0.dtd"
   xmlns:inkscape="http://www.inkscape.org/namespaces/inkscape"
   width="140mm"
   height="140mm"
   viewBox="0 0 496.06299 496.06299"
   id="svg2"
   version="1.1"
   inkscape:version="0.91 r13725"
   sodipodi:docname="TFMM_Jigsaw.svg"
   inkscape:export-filename="C:\Users\NAEHRING\Desktop\tfmm_jigsaw.png"
   inkscape:export-xdpi="90"
   inkscape:export-ydpi="90">
  <defs
     id="defs4" />
  <sodipodi:namedview
     id="base"
     pagecolor="#ffffff"
     bordercolor="#666666"
     borderopacity="1.0"
     inkscape:pageopacity="0.0"
     inkscape:pageshadow="2"
     inkscape:zoom="0.7"
     inkscape:cx="281.48679"
     inkscape:cy="398.82894"
     inkscape:document-units="px"
     inkscape:current-layer="g3360"
     showgrid="false"
     inkscape:window-width="1280"
     inkscape:window-height="962"
     inkscape:window-x="-8"
     inkscape:window-y="-8"
     inkscape:window-maximized="1" />
  <metadata
     id="metadata7">
    <rdf:RDF>
      <cc:Work
         rdf:about="">
        <dc:format>image/svg+xml</dc:format>
        <dc:type
           rdf:resource="http://purl.org/dc/dcmitype/StillImage" />
        <dc:title></dc:title>
      </cc:Work>
    </rdf:RDF>
  </metadata>
  <g
     inkscape:label="Ebene 1"
     inkscape:groupmode="layer"
     id="layer1"
     transform="translate(0,-556.29921)">
    <g
       id="g3360"
       transform="translate(14.285717,-65.714283)">
      <path
         style="fill:#831555;fill-opacity:1;stroke:none"
         d="m 120.96193,1108.13 c 5.29931,-1.4948 11.75276,-8.532 13.29047,-14.4927 1.38737,-5.3779 0.73801,-9.1814 -3.27469,-19.181 -3.14289,-7.8321 -2.76817,-12.1899 1.24605,-14.4908 2.24834,-1.2887 40.98146,-2.1635 111.63235,-2.5213 40.85657,-86.01743 46.35581,-119.47779 -35.5,-187.70087 l -35,0.5 c -29.94992,0.42786 -35.53594,0.743 -38.71441,2.1841 -5.28303,2.39532 -5.61943,5.03065 -1.87991,14.72753 3.62447,9.39858 4.22045,18.95929 1.44096,23.11586 -5.40163,8.07783 -11.66686,11.97251 -19.25975,11.97251 -5.72449,0 -9.05889,-1.24762 -14.27555,-5.34144 -7.451237,-5.84742 -8.657547,-15.31036 -3.789147,-29.72425 2.78239,-8.23786 2.90668,-9.17118 1.56647,-11.76286 -0.96773,-1.87139 -2.77396,-3.21 -5.38821,-3.99325 -5.5926,-1.67558 -69.322642,-1.65602 -71.000462,0.0218 -0.88811,0.88811 -1.2,10.39487 -1.2,36.57692 l 0,35.37694 2.92308,2.92307 c 3.59778,3.59779 6.2539,3.67999 14.22693,0.44026 11.16031,-4.53484 19.09148,-4.32962 26.46545,0.68481 4.79096,3.25793 7.38455,9.32006 7.38455,17.26027 0,8.5575 -2.95904,14.09019 -9.28934,17.36882 -7.3984,3.83183 -11.31124,3.84836 -23.2862,0.0984 -9.79576,-3.06757 -10.8307,-3.21182 -13.26029,-1.84813 -4.99677,2.80462 -5.13362,3.89337 -5.14944,40.96861 -0.0109,25.5559 0.29765,34.8624 1.18526,35.75 0.88807,0.8881 10.38882,1.2 36.54967,1.2 29.654292,0 35.822672,0.2446 38.285512,1.5182 4.445147,2.2987 4.751967,5.5931 1.3912,14.9371 -5.35319,14.8836 -3.52895,25.1397 5.538927,31.1405 4.27228,2.8273 11.71323,3.8218 17.14052,2.2909 z"
         id="path3366"
         inkscape:connector-curvature="0"
         sodipodi:nodetypes="csssccssssssssssscsssssssssssssc" />
      <path
         style="fill:#413e39;fill-opacity:1"
         d="m 395.18944,1056.5767 c 0.36667,-0.3667 0.66667,-16.5891 0.66667,-36.0497 0,-39.03522 0.11693,-39.84681 6.09777,-42.32416 2.85891,-1.1842 3.98585,-1.04856 10.79716,1.29959 14.37266,4.95486 20.66584,4.82148 26.80425,-0.56811 9.44821,-8.29564 9.43915,-21.09427 -0.0208,-29.40023 -6.07955,-5.33792 -14.25827,-5.5974 -25.62551,-0.81299 -3.29592,1.38723 -6.92849,2.52224 -8.07238,2.52224 -3.2882,0 -7.48293,-2.61261 -8.78578,-5.47206 -0.88514,-1.94266 -1.22498,-28.88016 -1.31157,-79.41129 -78.01955,-89.39616 -113.72818,-53.14547 -187.16689,-0.34775 0.11894,38.35211 0.49249,71.7001 0.83011,74.10666 0.85327,6.08223 4.39927,9.54482 8.90842,8.6989 1.83914,-0.34502 4.6267,-1.25794 6.19456,-2.02869 4.20559,-2.06745 15.18917,-3.79763 19.28304,-3.03754 10.29176,1.91081 16.08665,9.26947 16.03945,20.36772 -0.0398,9.3539 -2.89225,14.79049 -9.50935,18.12405 -6.74445,3.39772 -13.50456,3.29732 -24.80493,-0.36839 -7.25516,-2.35349 -9.28395,-2.66723 -11.30196,-1.74777 -5.06145,2.30615 -5.40465,5.1467 -5.11872,42.36542 l 0.26313,34.2507 35,0.2554 c 31.6931,0.2313 35.33069,0.09 38.5,-1.5 4.74355,-2.3791 4.91838,-5.3886 0.95203,-16.3884 -3.84049,-10.6508 -3.72626,-16.1638 0.48377,-23.3476 2.21664,-3.7824 3.94332,-5.2567 8.90694,-7.6049 7.94553,-3.7589 11.82063,-3.6929 19.71896,0.3355 5.14243,2.6229 6.81258,4.1005 8.65516,7.6573 3.18216,6.1427 3.10234,15.0797 -0.21686,24.2813 -3.2486,9.0059 -3.22029,12.0997 0.13486,14.7388 2.55227,2.0077 3.73818,2.0726 37.83333,2.0726 19.35916,0 35.49848,-0.3 35.86514,-0.6666 z"
         id="path3364"
         inkscape:connector-curvature="0"
         sodipodi:nodetypes="cssssssssccssssssssscssssssssssc" />
      <path
         style="fill:#888888;fill-opacity:1"
         d="m 246.35612,870.47637 c 34.6506,-0.27352 37.15874,-0.41356 39.5,-2.20542 1.99885,-1.52981 2.5,-2.79654 2.5,-6.3191 0,-2.42315 -0.5625,-5.59886 -1.25,-7.05712 -6.36894,-13.50922 -6.27628,-20.75586 0.36457,-28.5142 8.8283,-10.31388 24.42484,-9.3031 32.5657,2.11052 1.96762,2.75863 2.31973,4.48156 2.31973,11.3509 0,4.45424 -0.53984,9.17924 -1.19963,10.5 -2.73967,5.48417 -4.25854,11.88121 -3.37362,14.20872 2.12666,5.59355 2.8586,5.69267 42.03807,5.69267 l 36.03517,0 -0.11688,-31.75 c -0.0643,-17.4625 -0.40179,-34.66016 -0.75,-38.21703 -0.55918,-5.71179 -0.95534,-6.64606 -3.39229,-8 -2.58945,-1.43867 -3.34353,-1.32919 -12.25906,1.77983 -11.93252,4.16112 -15.98888,4.2579 -23.30872,0.55615 -4.8038,-2.42936 -6.0944,-3.70084 -8.42304,-8.29826 -1.82516,-3.60341 -2.75,-6.99024 -2.75,-10.07069 0,-3.08045 0.92484,-6.46728 2.75,-10.07069 2.36257,-4.66441 3.5819,-5.84492 8.65493,-8.37931 3.24771,-1.6225 7.29771,-2.94617 9,-2.94149 1.70229,0.005 7.68602,1.52673 13.29719,3.38233 11.17977,3.69711 14.54058,3.44046 16.08762,-1.22855 0.41227,-1.24426 0.59301,-18.34979 0.40163,-38.01229 l -0.34795,-35.75001 -34.68731,0 c -31.9196,0 -34.96533,-0.14861 -38.17171,-1.86247 -5.89681,-3.15194 -6.20944,-6.75371 -1.61772,-18.63753 0.87554,-2.26599 1.56456,-7.22796 1.58943,-11.44625 0.038,-6.44077 -0.30895,-7.9554 -2.56917,-11.21689 -3.09536,-4.46662 -11.19948,-8.83686 -16.38694,-8.83686 -5.21171,0 -13.29128,4.36982 -16.41574,8.87841 -4.22698,6.09953 -4.40766,11.9861 -0.69939,22.78628 4.53519,13.20854 4.1191,15.9162 -2.87593,18.71506 -3.46272,1.3855 -9.11226,1.62025 -38.99357,1.62025 l -34.94415,0 -0.28561,36.42058 c 0,0 0,0 -0.28561,36.42056 -0.0232,2.96239 -4.38753,5.06737 -7.2369,5.15887 -2.32742,0 -14.02569,-3.44078 -17.49954,-5.14709 -4.31487,-2.1194 -17.10824,1.16272 -20.40701,5.2354 -8.55989,10.56809 -6.87242,25.13873 3.75049,32.38391 3.83057,2.61258 5.22271,2.97222 11.50519,2.97222 3.93102,0 7.76391,-0.48121 8.51754,-1.06936 0.75362,-0.58815 4.42297,-2.12675 8.1541,-3.41911 0,0 4.5697,-1.07848 6.73925,-0.47475 1.5848,0.44101 3.70956,1.07696 5.08591,2.13243 0.83234,0.63829 1.39097,1.43 1.39097,2.42481 l 0,37.48077 c 0,20.61442 0.225,37.37392 0.5,37.24332 0.275,-0.1306 17.15,-0.36889 37.5,-0.52952 z"
         id="path3362"
         inkscape:connector-curvature="0"
         sodipodi:nodetypes="sssssssssscssssssssscssscssssssssssccscssssssssssss" />
      <text
         xml:space="preserve"
         style="font-style:normal;font-weight:normal;font-size:40px;line-height:125%;font-family:sans-serif;letter-spacing:0px;word-spacing:0px;fill:#831555;fill-opacity:1;stroke:none;stroke-width:1px;stroke-linecap:butt;stroke-linejoin:miter;stroke-opacity:1"
         x="-65.716782"
         y="832.37994"
         id="text4178"
         sodipodi:linespacing="125%"
         transform="matrix(0.97960342,-0.20094066,0.20094066,0.97960342,0,0)"><tspan
           sodipodi:role="line"
           id="tspan4180"
           x="-65.716782"
           y="832.37994"
           style="font-style:italic;font-variant:normal;font-weight:bold;font-stretch:normal;font-size:87.5px;font-family:Arial;-inkscape-font-specification:'Arial Bold Italic'">TFMM</tspan></text>
    </g>
  </g>
</svg>
